<svg xmlns="http://www.w3.org/2000/svg" width="98.048" height="98.048" viewBox="0 0 98.048 98.048"><defs><style>.a{fill:#3886fa;}.b{fill:#fff;}</style></defs><g transform="translate(-122.153 -6092.253)"><circle class="a" cx="49.024" cy="49.024" r="49.024" transform="translate(122.153 6092.253)"/><path class="b" d="M165.106,6166.152a2.066,2.066,0,0,1-1.691-.783q-5.818-6-11.607-12.034c-1.221-1.267-2.45-2.527-3.671-3.794a7.921,7.921,0,0,1-.6-.7,1.843,1.843,0,0,1-.327-1.7q2.514-9.309,5-18.627c.347-1.3.73-2.585,1.024-3.893a2.425,2.425,0,0,1,1.888-1.95q9.315-2.646,18.62-5.333c.942-.27,1.887-.529,2.822-.82a2.043,2.043,0,0,1,2.169.5c1.826,1.685,3.466,3.55,5.212,5.311,1.277,1.287,2.522,2.6,3.781,3.91,2.238,2.319,4.469,4.645,6.717,6.955a2.487,2.487,0,0,1,.694,2.52q-2.233,8.383-4.485,16.763c-.5,1.867-.985,3.737-1.509,5.6a2.45,2.45,0,0,1-1.783,1.832q-10.707,3.048-21.4,6.137A2.959,2.959,0,0,1,165.106,6166.152Zm.123-16.719c-.012-.049-.029-.114-.045-.179q-1.449-5.8-2.9-11.6c-.031-.123,0-.315-.146-.349s-.211.143-.3.236q-4.145,4.285-8.285,8.575c-.313.323-.308.34.123.455q3.576.959,7.154,1.918,2.06.552,4.124,1.093C165.07,6149.616,165.262,6149.751,165.229,6149.433Zm14.085-14.284c-.223-.891-.423-1.7-.624-2.5q-1.2-4.781-2.386-9.564c-.085-.343-.164-.374-.4-.111-.443.485-.907.951-1.364,1.424q-3.47,3.591-6.939,7.181c-.332.345-.329.348.128.471l6.919,1.85Zm1.776,7.207a1.021,1.021,0,0,0-.4.326q-2.551,2.632-5.1,5.269-1.6,1.649-3.2,3.293c-.2.2-.249.316.089.367a1.49,1.49,0,0,1,.193.054l8.244,2.207c.973.26,1.947.514,2.917.782.292.08.383.014.271-.278a1.324,1.324,0,0,1-.034-.158q-1.327-5.312-2.657-10.623C181.309,6143.184,181.2,6142.775,181.09,6142.356Zm-11.659,6.024a1.78,1.78,0,0,1,.166-.226q1.4-1.473,2.81-2.941,2.7-2.8,5.4-5.594c.369-.382.358-.411-.154-.548l-11.04-2.957c-.448-.12-.448-.118-.332.347q.955,3.827,1.911,7.652.5,1.992,1,3.98C169.218,6148.192,169.178,6148.351,169.431,6148.38Zm-13.221,3.243-.1.148c.365.335.748.652,1.093,1.006q3.255,3.352,6.5,6.715c.358.371.365.367.492-.106q.638-2.37,1.271-4.743c.137-.513.131-.516-.363-.648l-6.261-1.672Zm22.943,6.174a1.245,1.245,0,0,0-.121-.059q-4.525-1.213-9.049-2.431c-.281-.076-.381.024-.449.285-.337,1.3-.689,2.59-1.035,3.886-.123.46-.245.922-.386,1.457Zm-19.814-31.928c.09.11.135.174.188.23,1.153,1.2,2.313,2.392,3.456,3.6.229.244.357.251.6,0,1.71-1.781,3.435-3.548,5.155-5.318q.748-.769,1.5-1.536l-.05-.076Zm21.99-.036a.91.91,0,0,0,0,.185c.768,3.042,1.542,6.083,2.3,9.127.079.317.23.293.464.225q2.32-.671,4.642-1.332c.486-.14.486-.139.141-.5q-2.951-3.056-5.9-6.108C182.452,6126.9,181.9,6126.388,181.329,6125.833ZM153.418,6140.1l.09.043c.228-.243.454-.488.685-.727q2.94-3.037,5.884-6.072c.147-.152.285-.27.069-.492q-1.77-1.816-3.52-3.652c-.158-.164-.257-.192-.309.069-.018.092-.049.181-.074.271q-1.066,3.984-2.134,7.966Q153.761,6138.806,153.418,6140.1Zm33.706,9.053.084-.012c.017-.064.035-.128.052-.191q1.409-5.249,2.815-10.5c.093-.35.038-.4-.339-.29-1.523.432-3.043.876-4.57,1.3-.331.092-.419.22-.329.567.5,1.935.976,3.876,1.46,5.816Q186.71,6147.5,187.124,6149.155Z"/></g></svg>