<svg xmlns="http://www.w3.org/2000/svg" width="71.319" height="60.695" viewBox="0 0 71.319 60.695"><g transform="translate(-96.565 -35.217)"><path d="M126.878,79.274a16.525,16.525,0,1,0-16.84-16.523A16.685,16.685,0,0,0,126.878,79.274Zm0,4.406a20.932,20.932,0,1,0-21.331-20.929A21.133,21.133,0,0,0,126.878,83.68Z" fill="#fff" fill-rule="evenodd"/><path d="M142.178,72.909l23.576,18.725-1.413,1.712L140.765,74.621Z" fill="#fff" fill-rule="evenodd"/><path d="M149.921,74.754l17.963,14.319-5.664,6.839L144.257,81.593Z" fill="#fff" fill-rule="evenodd"/><path d="M126.878,51.736a11.122,11.122,0,0,0-11.227,11.015h-2.245a13.346,13.346,0,0,1,13.472-13.218Z" fill="#fff" fill-rule="evenodd"/><path d="M96.565,35.217h16.279v4.406H101.056v9.913H96.565ZM152.7,39.623H140.912V35.217h16.279V49.536H152.7ZM101.056,83.682V73.769H96.565V88.088h16.279V83.682Z" fill="#3886fa" fill-rule="evenodd"/></g></svg>