<?xml version="1.0" standalone="no"?>
<!DOCTYPE svg PUBLIC "-//W3C//DTD SVG 20010904//EN"
 "http://www.w3.org/TR/2001/REC-SVG-20010904/DTD/svg10.dtd">
<svg version="1.0" xmlns="http://www.w3.org/2000/svg"
 width="194.000000pt" height="194.000000pt" viewBox="0 0 194.000000 194.000000"
 preserveAspectRatio="xMidYMid meet">
<metadata>
Created by potrace 1.14, written by Peter Selinger 2001-2017
</metadata>
<g transform="translate(0.000000,194.000000) scale(0.100000,-0.100000)"
fill="#000000" stroke="none">
<path d="M0 1605 l0 -196 61 3 62 3 -1 133 0 132 159 0 c134 0 159 2 160 15 0
8 1 29 1 45 0 17 -1 37 -1 45 -1 13 -33 15 -221 15 l-220 0 0 -195z"/>
<path d="M1209 1780 c-1 -11 -2 -37 -2 -57 l-1 -38 159 -5 160 -5 0 -133 0
-132 63 0 62 0 0 195 0 195 -220 0 c-213 0 -220 -1 -221 -20z"/>
<path d="M705 1605 c-180 -38 -320 -144 -400 -304 -183 -364 73 -795 485 -815
161 -8 308 42 420 142 l55 50 40 -31 c22 -17 42 -32 44 -34 2 -1 -8 -19 -23
-38 l-28 -36 24 -19 c13 -10 122 -97 243 -194 l220 -176 33 37 c17 21 52 63
76 94 l44 55 -230 185 c-127 101 -238 188 -246 193 -10 6 -21 0 -39 -23 -13
-17 -28 -31 -32 -31 -4 0 -26 16 -50 36 -38 33 -41 38 -27 53 24 26 62 120 76
186 27 125 12 239 -46 362 -111 233 -379 363 -639 308z m276 -134 c144 -55
249 -169 288 -315 17 -63 8 -203 -17 -266 -46 -116 -163 -225 -283 -265 -250
-83 -529 70 -589 324 -35 149 5 294 111 406 55 58 148 113 224 131 73 17 199
10 266 -15z"/>
<path d="M17 752 c-15 -3 -17 -24 -17 -197 l0 -193 220 0 c157 0 220 4 221 12
3 35 0 98 -5 103 -3 3 -74 6 -158 7 l-153 1 -2 110 c0 61 -2 120 -2 131 -1 18
-8 23 -44 25 -24 2 -51 3 -60 1z"/>
</g>
</svg>
