<svg xmlns="http://www.w3.org/2000/svg" width="1920.044" height="702.967" viewBox="0 0 1920.044 702.967"><g transform="translate(0.022 -7302.383)"><path d="M-.022,7610.716H378.342a112.435,112.435,0,0,1,112.434,112.435v125.265A112.434,112.434,0,0,0,603.211,7960.85h9.376a112.434,112.434,0,0,0,112.434-112.434V7569.042a112.435,112.435,0,0,1,112.435-112.434h10.12a112.435,112.435,0,0,1,112.435,112.434v156.087a112.435,112.435,0,0,0,112.435,112.435h0a112.434,112.434,0,0,0,112.434-112.435V7459.317a112.435,112.435,0,0,1,112.435-112.434h16.773a112.434,112.434,0,0,1,112.434,112.434V7525.4a112.434,112.434,0,0,0,112.435,112.434h381.065" fill="none" stroke="#191753" stroke-miterlimit="10" stroke-width="89"/><path d="M-.022,7610.716H378.342a112.435,112.435,0,0,1,112.434,112.435v125.265A112.434,112.434,0,0,0,603.211,7960.85h9.376a112.434,112.434,0,0,0,112.434-112.434V7569.042a112.435,112.435,0,0,1,112.435-112.434h10.12a112.435,112.435,0,0,1,112.435,112.434v156.087a112.435,112.435,0,0,0,112.435,112.435h0a112.434,112.434,0,0,0,112.434-112.435V7459.317a112.435,112.435,0,0,1,112.435-112.434h16.773a112.434,112.434,0,0,1,112.434,112.434V7525.4a112.434,112.434,0,0,0,112.435,112.434h381.065" fill="none" stroke="#fff" stroke-miterlimit="10" stroke-width="10"/></g></svg>