<svg xmlns="http://www.w3.org/2000/svg" width="98.048" height="98.048" viewBox="0 0 98.048 98.048"><defs><style>.a{fill:#3886fa;}.b{fill:#fff;}</style></defs><g transform="translate(-567.573 -6092.253)"><circle class="a" cx="49.024" cy="49.024" r="49.024" transform="translate(567.573 6092.253)"/><path class="b" d="M617.065,6127.649H595.7c-.313,0-.627.017-.939-.006-.371-.027-.9.141-1.029-.326-.141-.5.408-.592.729-.763,1.483-.794,2.975-1.571,4.466-2.35q7.8-4.073,15.6-8.146a4.895,4.895,0,0,1,4.822-.055q10.039,5.24,20.091,10.457a3.5,3.5,0,0,1,.7.43c.387.339.3.627-.192.72a5.765,5.765,0,0,1-1.053.038Q627.981,6127.651,617.065,6127.649Z"/><path class="b" d="M616.537,6166.156q-11.442,0-22.886,0a7.017,7.017,0,0,1-1.17-.04,1.527,1.527,0,0,1-.167-2.988,5.487,5.487,0,0,1,1.395-.116q22.886-.008,45.772,0c1.763,0,2.518.471,2.541,1.564.024,1.119-.7,1.584-2.481,1.584Q628.039,6166.158,616.537,6166.156Z"/><path class="b" d="M617.112,6129.392h21.469c.391,0,.783-.008,1.173.016a1.442,1.442,0,0,1,1.5,1.36,1.475,1.475,0,0,1-1.2,1.646,4.731,4.731,0,0,1-1.276.125q-21.822.009-43.643,0a4.28,4.28,0,0,1-1.269-.153,1.525,1.525,0,0,1,.253-2.951,8.906,8.906,0,0,1,1.288-.041Q606.259,6129.391,617.112,6129.392Z"/><path class="b" d="M596.372,6153.207c.166-4.844.323-9.689.506-14.532.026-.681.048-1.2-.845-1.339-.855-.133-1.05-.872-1.016-1.621a1.417,1.417,0,0,1,1.275-1.468,21.736,21.736,0,0,1,5.144.035,1.285,1.285,0,0,1,1.125,1.312c.052.715-.076,1.448-.819,1.642-1.1.289-1.074,1-1.035,1.876q.355,8.022.653,16.048c.069,1.883-.358,2.28-2.226,2.291-.313,0-.626.006-.939,0-1.482-.036-1.89-.448-1.889-1.9v-2.346Z"/><path class="b" d="M607.866,6134.215c.781,0,1.566-.046,2.343.011a1.409,1.409,0,0,1,1.436,1.294,1.46,1.46,0,0,1-.962,1.792c-.863.251-.9.828-.873,1.535.194,5.5.369,11.012.572,16.518.057,1.559-.364,2.05-1.931,2.086-2.953.067-3.235-.193-3.122-3.17.193-5.036.421-10.07.638-15.1.038-.881.113-1.685-1.087-1.975-.736-.179-.834-.964-.762-1.668a1.351,1.351,0,0,1,1.291-1.3C606.221,6134.156,607.046,6134.216,607.866,6134.215Z"/><path class="b" d="M632.515,6153.677c.216-5.038.423-10.076.657-15.112.03-.632-.085-1.032-.769-1.213a1.479,1.479,0,0,1-1.158-1.781,1.53,1.53,0,0,1,1.638-1.38q2.168-.064,4.34.008a1.441,1.441,0,0,1,1.54,1.322,1.5,1.5,0,0,1-1.072,1.836c-.488.151-.829.311-.791.946q.213,3.57.339,7.143.183,5.1.3,10.2c.032,1.354-.379,1.76-1.713,1.8C632.313,6157.55,632.413,6157.235,632.515,6153.677Z"/><path class="b" d="M626.045,6134.177c.7,0,1.408-.021,2.11.006a1.479,1.479,0,0,1,1.572,1.294,1.5,1.5,0,0,1-1.018,1.871,1.041,1.041,0,0,0-.811,1.215c.218,5.465.394,10.931.647,16.394.088,1.9-.362,2.481-2.285,2.493-.391,0-.783.015-1.173-.01-1.175-.077-1.718-.6-1.676-1.8.17-4.919.38-9.836.575-14.754.025-.625.024-1.252.077-1.874.073-.847-.039-1.474-1.033-1.782-.767-.238-.922-1.013-.8-1.766a1.4,1.4,0,0,1,1.351-1.253c.816-.059,1.639-.014,2.46-.014Z"/><path class="b" d="M614.441,6153.2c.2-4.913.383-9.828.61-14.74.029-.625-.114-.916-.736-1.077a1.628,1.628,0,0,1,.436-3.194c1.443-.047,2.89-.044,4.333,0a1.427,1.427,0,0,1,1.556,1.292c.1.857-.1,1.623-1.028,1.847s-.84.864-.812,1.538c.221,5.42.454,10.84.649,16.261.071,1.945-.336,2.312-2.309,2.318-.312,0-.625.008-.937,0-1.3-.048-1.763-.5-1.783-1.782-.013-.82,0-1.64,0-2.46Z"/><path class="b" d="M616.824,6161.465c-6.96,0-13.919.01-20.879-.016-.534,0-1.393.382-1.482-.623a1.606,1.606,0,0,1,1.292-1.729,4.482,4.482,0,0,1,1.278-.1q19.824-.008,39.647,0a2.659,2.659,0,0,1,2.085.562,1.418,1.418,0,0,1,.5,1.474c-.2.592-.769.435-1.214.435q-6.335.014-12.668,0Q621.106,6161.463,616.824,6161.465Z"/></g></svg>