<svg xmlns="http://www.w3.org/2000/svg" width="98.048" height="98.048" viewBox="0 0 98.048 98.048"><defs><style>.a{fill:#3886fa;}.b{fill:#fff;}</style></defs><g transform="translate(-1442.099 -6092.253)"><circle class="a" cx="49.024" cy="49.024" r="49.024" transform="translate(1442.099 6092.253)"/><path class="b" d="M1502.462,6138.968a5.15,5.15,0,0,1,.915.009,1.335,1.335,0,0,1,1.093,1.184,5.6,5.6,0,0,1-.005,2.166c-.158.777-.61,1.252-1.4,1.171a1.794,1.794,0,0,0-2.28,1.73,3.457,3.457,0,0,1-.612,1.22.472.472,0,0,0,.1.693c.311.283.606.584.9.888a1.413,1.413,0,0,1,.074,2.014A14.778,14.778,0,0,1,1500,6151.3a1.419,1.419,0,0,1-2.095-.062c-.374-.354-.658-.893-1.136-1.021s-.867.4-1.334.554c-.526.173-1.038.391-1.566.553a.5.5,0,0,0-.423.575c.02.419.016.841.005,1.262a1.354,1.354,0,0,1-1.148,1.436,5.376,5.376,0,0,1-2.166.027,1.425,1.425,0,0,1-1.274-1.407.588.588,0,0,1-.015-.17c.243-1.224-.268-1.853-1.488-2.07a5.245,5.245,0,0,1-1.45-.671.428.428,0,0,0-.6.078c-.3.32-.615.629-.933.933a1.446,1.446,0,0,1-2.063.049c-.387-.341-.765-.7-1.117-1.072a1.5,1.5,0,0,1,.043-2.32c1.028-1.047,1.032-1.049.4-2.334a7.645,7.645,0,0,1-.562-1.562.546.546,0,0,0-.653-.479,10.278,10.278,0,0,1-1.144.013,1.435,1.435,0,0,1-1.539-1.313,6.225,6.225,0,0,1,.028-2.056,1.275,1.275,0,0,1,1.389-1.179c1.273.1,2.087-.264,2.291-1.65a3.8,3.8,0,0,1,.6-1.291.5.5,0,0,0-.112-.741c-.313-.281-.609-.582-.9-.888a1.43,1.43,0,0,1-.031-2.02,16.054,16.054,0,0,1,1.212-1.22,1.436,1.436,0,0,1,2.139.07c.373.353.654.914,1.139,1.006.465.089.868-.412,1.334-.577.5-.179,1-.38,1.514-.529a.528.528,0,0,0,.448-.614c-.022-.42-.017-.842,0-1.262a1.343,1.343,0,0,1,1.121-1.4,5.465,5.465,0,0,1,2.279-.022,1.36,1.36,0,0,1,1.158,1.253,8.764,8.764,0,0,1,.051,1.316c-.01.4.1.642.529.738a8.257,8.257,0,0,1,2.377.982.444.444,0,0,0,.648-.08c.284-.31.588-.6.891-.894a1.463,1.463,0,0,1,2.149-.015c.338.311.672.626.994.953a1.52,1.52,0,0,1,0,2.4c-1,1.017-1,1.013-.411,2.294a7,7,0,0,1,.523,1.392c.115.535.357.765.9.675a2.877,2.877,0,0,1,.459,0Zm-11.258-2.173a4.449,4.449,0,0,0-4.575,4.366,4.493,4.493,0,1,0,8.985.166A4.445,4.445,0,0,0,1491.2,6136.795Z"/><path class="b" d="M1512.677,6167.087a4.693,4.693,0,1,1,4.719-4.65A4.739,4.739,0,0,1,1512.677,6167.087Z"/><path class="b" d="M1512.7,6115.476a4.686,4.686,0,0,1,.044,9.372,4.761,4.761,0,0,1-4.731-4.7A4.71,4.71,0,0,1,1512.7,6115.476Z"/><path class="b" d="M1474.221,6162.4a4.685,4.685,0,1,1-4.679-4.7A4.716,4.716,0,0,1,1474.221,6162.4Z"/><path class="b" d="M1469.345,6115.49a4.671,4.671,0,1,1,.387,9.334,4.671,4.671,0,0,1-.387-9.334Z"/><path class="b" d="M1483.668,6116.861c0-.8-.03-1.607.011-2.408.025-.484-.093-.586-.563-.451a27.882,27.882,0,0,0-6.322,2.666c-.033.02-.064.043-.1.062-.415.235-.831.66-1.243.655-.473-.006-.512-.726-.854-1.048-.36-.34-.215-.568.153-.795a31.845,31.845,0,0,1,5.273-2.638,27.535,27.535,0,0,1,3.111-.994,1.869,1.869,0,0,1,2.529,1.721c.148,1.81.046,3.629.045,5.444a.522.522,0,0,1-.459.566c-.13.026-.257.072-.386.109-1.2.345-1.2.345-1.2-.939Q1483.667,6117.836,1483.668,6116.861Z"/><path class="b" d="M1498.575,6165.681q0,1.174,0,2.351c0,.652,0,.662.655.477a26.617,26.617,0,0,0,6.214-2.626,1.647,1.647,0,0,1,.146-.09c.434-.2.806-.7,1.243-.638s.474.725.8,1.042.262.56-.127.8a32.47,32.47,0,0,1-5.057,2.56,29.732,29.732,0,0,1-3.211,1.055,1.925,1.925,0,0,1-2.68-1.85c-.083-1.754-.025-3.515-.029-5.273a.559.559,0,0,1,.5-.6c.3-.068.589-.162.883-.246.587-.168.652-.125.659.51C1498.582,6164,1498.575,6164.84,1498.575,6165.681Z"/><path class="b" d="M1496.524,6116.45c0-.8,0-1.607,0-2.41a2.046,2.046,0,0,1,2.8-2.1,32.738,32.738,0,0,1,8.113,3.566c.408.251.582.485.172.871a1.214,1.214,0,0,0-.138.183c-.616.9-.631.92-1.587.346a27.967,27.967,0,0,0-6.549-2.869c-.729-.214-.742-.2-.743.55,0,1.607,0,3.213-.007,4.82,0,.635-.069.693-.657.5-1.589-.514-1.392-.06-1.408-1.858-.005-.535,0-1.071,0-1.606Z"/><path class="b" d="M1483.655,6165.575c0-.841.009-1.683,0-2.524-.007-.437.136-.594.583-.446,1.637.546,1.477.092,1.486,1.93.007,1.205,0,2.41,0,3.615a5.938,5.938,0,0,1-.039.743,1.923,1.923,0,0,1-2.582,1.746,30.307,30.307,0,0,1-8.285-3.591c-.45-.278-.573-.533-.153-.911.327-.3.315-1,.841-.961.394.027.768.393,1.144.621a27.821,27.821,0,0,0,6.407,2.766c.483.147.614.006.6-.463-.022-.841-.006-1.683-.006-2.525Z"/><path class="b" d="M1515.554,6133.839c.822,0,1.646-.033,2.466.012.484.027.492-.148.386-.523a27.286,27.286,0,0,0-2.8-6.582c-.459-.774-.485-.689.262-1.1.066-.037.13-.08.194-.122.857-.552.847-.546,1.349.325a30.53,30.53,0,0,1,2.966,7.01,2.764,2.764,0,0,1,.111,1.633,1.812,1.812,0,0,1-1.686,1.342c-.818.063-1.643.038-2.466.043-.956,0-1.913-.009-2.869,0-.4,0-.65-.117-.732-.544a5.941,5.941,0,0,0-.289-.931c-.149-.4-.006-.579.406-.578h2.7Z"/><path class="b" d="M1466.757,6148.734c-.8,0-1.606.021-2.408-.008-.5-.018-.63.119-.482.625a27.1,27.1,0,0,0,2.865,6.6c.253.412.295.685-.217.869a1.345,1.345,0,0,0-.246.147c-.954.6-.94.591-1.525-.422a30.42,30.42,0,0,1-2.942-7.071,2.259,2.259,0,0,1,.129-1.83,1.643,1.643,0,0,1,1.273-.884c1.924-.184,3.855-.068,5.784-.066a.468.468,0,0,1,.48.4,8.548,8.548,0,0,0,.309.984c.2.514-.032.65-.5.645-.841-.008-1.682,0-2.522,0Z"/><path class="b" d="M1466.819,6133.807c.841,0,1.681.011,2.522,0,.488-.008.586.177.448.632-.437,1.435-.425,1.439-1.96,1.439-1.3,0-2.6.01-3.9,0a2.012,2.012,0,0,1-2.125-2.808,30.758,30.758,0,0,1,3.193-7.521c.249-.421.472-.648.889-.2a.956.956,0,0,0,.189.128c.934.592.938.6.367,1.583a27.926,27.926,0,0,0-2.587,6.106c-.179.6-.152.643.5.646.822.005,1.643,0,2.465,0Z"/><path class="b" d="M1515.444,6148.739c-.861,0-1.722,0-2.582,0-.4,0-.571-.139-.421-.558.6-1.688.074-1.49,1.979-1.5,1.262-.009,2.525-.011,3.787,0,1.914.02,2.715,1.107,2.2,2.933a31.289,31.289,0,0,1-3.143,7.366c-.263.448-.495.666-.934.227-.3-.3-.951-.331-.976-.773-.02-.358.336-.745.546-1.107a28.505,28.505,0,0,0,2.474-5.852c.21-.677.174-.723-.519-.726-.8,0-1.607,0-2.41,0Z"/><path class="b" d="M1509.841,6141.476c.007-.773.407-1.263,1.03-1.26s1.027.512,1.009,1.272-.385,1.216-1,1.225C1510.234,6142.721,1509.835,6142.247,1509.841,6141.476Z"/><path class="b" d="M1504.3,6125.557a1.547,1.547,0,0,1,1.307,1.3.975.975,0,0,1-.969.991,1.546,1.546,0,0,1-1.351-1.324A1.047,1.047,0,0,1,1504.3,6125.557Z"/><path class="b" d="M1485.377,6121.39a1,1,0,0,1,1.025,1,1.309,1.309,0,0,1-1.383,1.1.975.975,0,0,1-1.037-.98C1483.978,6121.864,1484.557,6121.4,1485.377,6121.39Z"/><path class="b" d="M1481.185,6125.192a1.035,1.035,0,0,1-.977-1,1.438,1.438,0,0,1,1.439-1.2,1.021,1.021,0,0,1,.954,1.022A1.5,1.5,0,0,1,1481.185,6125.192Z"/><path class="b" d="M1476.372,6129.328a1.5,1.5,0,0,1-1.222,1.372,1.009,1.009,0,0,1-1.025-1,1.528,1.528,0,0,1,1.264-1.336A.952.952,0,0,1,1476.372,6129.328Z"/><path class="b" d="M1510.168,6149.267a1.405,1.405,0,0,1-1.2,1.439.968.968,0,0,1-.984-.973,1.4,1.4,0,0,1,1.163-1.4A.986.986,0,0,1,1510.168,6149.267Z"/><path class="b" d="M1493.513,6122.683c-.842-.008-1.365-.407-1.375-1.049a1.021,1.021,0,0,1,1.026-1.008c.856,0,1.409.426,1.411,1.085A1.04,1.04,0,0,1,1493.513,6122.683Z"/><path class="b" d="M1489.094,6122.617a.985.985,0,0,1-1.083-.928c-.032-.631.488-1.078,1.264-1.088a1.043,1.043,0,0,1,1.171.978C1490.456,6122.244,1490,6122.6,1489.094,6122.617Z"/><path class="b" d="M1510.424,6144.382a1.031,1.031,0,0,1,1.011.967c.032.808-.418,1.43-1.054,1.456a.97.97,0,0,1-1.026-.987C1509.343,6144.987,1509.782,6144.4,1510.424,6144.382Z"/><path class="b" d="M1488.993,6161.911c-.879-.03-1.364-.412-1.348-1.064a.982.982,0,0,1,1.095-.979c.865.042,1.372.457,1.332,1.09A1.01,1.01,0,0,1,1488.993,6161.911Z"/><path class="b" d="M1479.883,6158.143a.958.958,0,0,1,.988-.96,1.454,1.454,0,0,1,1.393,1.191.98.98,0,0,1-.96,1A1.474,1.474,0,0,1,1479.883,6158.143Z"/><path class="b" d="M1486.027,6160.1a.932.932,0,0,1-1,.937c-.877-.036-1.432-.51-1.389-1.186a.963.963,0,0,1,1.031-.921A1.265,1.265,0,0,1,1486.027,6160.1Z"/><path class="b" d="M1497.256,6121.5c.8.044,1.382.566,1.329,1.2a.957.957,0,0,1-.985.91c-.83-.03-1.455-.547-1.43-1.182A.973.973,0,0,1,1497.256,6121.5Z"/><path class="b" d="M1508.094,6152.9a1.566,1.566,0,0,1-1.291,1.337,1.021,1.021,0,0,1-.968-1.016,1.544,1.544,0,0,1,1.288-1.329A1,1,0,0,1,1508.094,6152.9Z"/><path class="b" d="M1500.967,6157.383a1.028,1.028,0,0,1,1.036,1.011,1.413,1.413,0,0,1-1.358,1.168.97.97,0,0,1-1.033-.932A1.44,1.44,0,0,1,1500.967,6157.383Z"/><path class="b" d="M1493.069,6159.935c.682,0,1.117.366,1.13.942.015.648-.517,1.075-1.338,1.074a.98.98,0,0,1-1.081-1.045C1491.8,6160.281,1492.262,6159.931,1493.069,6159.935Z"/><path class="b" d="M1472.4,6141.034c.005.747-.423,1.265-1.038,1.254a1.046,1.046,0,0,1-.994-1.169c-.012-.759.4-1.256,1.029-1.246A1.056,1.056,0,0,1,1472.4,6141.034Z"/><path class="b" d="M1471.885,6135.768a1,1,0,0,1,1,.98c.017.84-.426,1.436-1.075,1.445a1.007,1.007,0,0,1-1.006-1.032C1470.817,6136.369,1471.277,6135.776,1471.885,6135.768Z"/><path class="b" d="M1473.033,6134.274a1.041,1.041,0,0,1-.966-1.022,1.4,1.4,0,0,1,1.214-1.383,1.047,1.047,0,0,1,.969,1.022A1.444,1.444,0,0,1,1473.033,6134.274Z"/><path class="b" d="M1477.874,6156.925a1.4,1.4,0,0,1-1.262-1.327.958.958,0,0,1,1.037-.919,1.5,1.5,0,0,1,1.277,1.338A.965.965,0,0,1,1477.874,6156.925Z"/><path class="b" d="M1478.229,6125.329a1.034,1.034,0,0,1,.97,1.016,1.528,1.528,0,0,1-1.339,1.277,1.02,1.02,0,0,1-.974-1.008A1.553,1.553,0,0,1,1478.229,6125.329Z"/><path class="b" d="M1502.314,6124.35a.972.972,0,0,1-.907,1,1.467,1.467,0,0,1-1.459-1.2,1,1,0,0,1,.975-1A1.513,1.513,0,0,1,1502.314,6124.35Z"/><path class="b" d="M1497.2,6159.06a1.042,1.042,0,0,1,1.031.959c.027.633-.571,1.124-1.392,1.143a.971.971,0,0,1-1.028-.938A1.287,1.287,0,0,1,1497.2,6159.06Z"/><path class="b" d="M1505.326,6155.906a1.554,1.554,0,0,1-1.29,1.331.961.961,0,0,1-1.007-.952,1.524,1.524,0,0,1,1.277-1.333A1,1,0,0,1,1505.326,6155.906Z"/><path class="b" d="M1511.479,6137.485a.97.97,0,0,1-.968,1.047c-.627,0-1.061-.573-1.056-1.386a.974.974,0,0,1,.975-1.047C1511.051,6136.091,1511.474,6136.651,1511.479,6137.485Z"/><path class="b" d="M1510.306,6133.6a1,1,0,0,1-1,.973,1.389,1.389,0,0,1-1.157-1.416,1.011,1.011,0,0,1,1-.974A1.4,1.4,0,0,1,1510.306,6133.6Z"/><path class="b" d="M1472.888,6147.921a1.34,1.34,0,0,1,1.167,1.4.958.958,0,0,1-.952,1.009,1.39,1.39,0,0,1-1.175-1.4A.977.977,0,0,1,1472.888,6147.921Z"/><path class="b" d="M1507.012,6128.627a1.482,1.482,0,0,1,1.3,1.309,1.011,1.011,0,0,1-.944,1.027,1.5,1.5,0,0,1-1.3-1.366A1.03,1.03,0,0,1,1507.012,6128.627Z"/><path class="b" d="M1470.762,6145.023a.927.927,0,0,1,.97-1.026c.656.01,1.06.536,1.054,1.371a.944.944,0,0,1-.98,1.03C1471.165,6146.4,1470.76,6145.869,1470.762,6145.023Z"/><path class="b" d="M1475.224,6153.822a1.376,1.376,0,0,1-1.322-1.307.97.97,0,0,1,.994-.958,1.442,1.442,0,0,1,1.245,1.338A.854.854,0,0,1,1475.224,6153.822Z"/></g></svg>