<svg xmlns="http://www.w3.org/2000/svg" width="280.134" height="60.695" viewBox="0 0 280.134 60.695"><g transform="translate(-96.565 -35.217)"><path d="M195.364,50.127h21.769V55.42H201.739v6.929h13.478v5.232H201.739v12.63h-6.375Z" fill="#fff"/><path d="M227.069,55.277h-6.02V49.9h6.02Zm-6.02,2.657h6.02V80.211h-6.02Z" fill="#fff"/><path d="M245.422,57.4a8.8,8.8,0,0,1,5.749,1.819q2.25,1.8,2.25,5.988v15h-6.083V66.661a6.088,6.088,0,0,0-.479-2.7,3.385,3.385,0,0,0-3.333-1.716,4.138,4.138,0,0,0-4.145,2.513,8.491,8.491,0,0,0-.583,3.393V80.211h-5.917V57.975h5.729v3.249a9.96,9.96,0,0,1,2.166-2.472A7.63,7.63,0,0,1,245.422,57.4Z" fill="#fff"/><path d="M267.3,57.4a7.366,7.366,0,0,1,3.666.9,7.07,7.07,0,0,1,2.6,2.453V50.127h6.02V80.211h-5.77V77.125a7.389,7.389,0,0,1-6.937,3.781,8.543,8.543,0,0,1-6.708-3.147,12.051,12.051,0,0,1-2.708-8.114q0-5.7,2.667-8.972A8.8,8.8,0,0,1,267.3,57.4ZM268.586,76a4.412,4.412,0,0,0,3.833-1.839,8.014,8.014,0,0,0,1.312-4.762q0-4.087-2.1-5.845a4.576,4.576,0,0,0-3-1.063,4.211,4.211,0,0,0-3.833,1.941,8.819,8.819,0,0,0-1.208,4.783,8.842,8.842,0,0,0,1.229,4.946A4.252,4.252,0,0,0,268.586,76Z" fill="#fff"/><path d="M288.188,70.524a8.094,8.094,0,0,0,1.229,4.149q2.063,2.984,7.27,2.984a13.1,13.1,0,0,0,4.25-.654q3.708-1.268,3.708-4.538a3.887,3.887,0,0,0-1.562-3.494,15.957,15.957,0,0,0-4.958-1.778l-4.146-.92a19.017,19.017,0,0,1-5.749-1.983,6.247,6.247,0,0,1-2.917-5.62,8.578,8.578,0,0,1,2.854-6.642q2.855-2.6,8.083-2.6a14.141,14.141,0,0,1,8.166,2.289Q307.79,53.989,307.79,59h-3.9a7.433,7.433,0,0,0-1.333-3.7q-1.9-2.351-6.437-2.351-3.666,0-5.27,1.513a4.691,4.691,0,0,0-1.6,3.515,3.419,3.419,0,0,0,1.875,3.229,27.891,27.891,0,0,0,5.561,1.635l4.292.961a13.283,13.283,0,0,1,4.791,1.9,7.067,7.067,0,0,1,2.916,6.11q0,4.988-3.708,7.133A16.748,16.748,0,0,1,296.4,81.09q-5.707,0-8.937-2.861a9.561,9.561,0,0,1-3.166-7.7Z" fill="#fff"/><path d="M322.039,57.689a9.81,9.81,0,0,1,6.124,1.8q2.375,1.8,2.853,6.193h-3.644a6.482,6.482,0,0,0-1.521-3.352,4.834,4.834,0,0,0-3.812-1.349,5.268,5.268,0,0,0-5.125,3.434,13.424,13.424,0,0,0-1,5.5,10.2,10.2,0,0,0,1.416,5.538,5.561,5.561,0,0,0,8.145.859,7.662,7.662,0,0,0,1.9-3.843h3.644q-.622,4.354-3.123,6.377a9.912,9.912,0,0,1-6.4,2,8.615,8.615,0,0,1-6.978-3.127,11.9,11.9,0,0,1-2.6-7.848q0-5.765,2.854-8.972A9.3,9.3,0,0,1,322.039,57.689Z" fill="#fff"/><path d="M337.641,74.387A3.01,3.01,0,0,0,338.83,76.9a4.451,4.451,0,0,0,2.81.919,8.683,8.683,0,0,0,3.833-.9,5.054,5.054,0,0,0,3.126-4.885V69.073a6.464,6.464,0,0,1-1.772.715,15.261,15.261,0,0,1-2.124.409l-2.271.286a8.779,8.779,0,0,0-3.061.838A3.252,3.252,0,0,0,337.641,74.387Zm9.084-7.44a2.037,2.037,0,0,0,1.727-1.062,3.168,3.168,0,0,0,.25-1.411,2.939,2.939,0,0,0-1.375-2.718,7.3,7.3,0,0,0-3.894-.858q-2.939,0-4.167,1.553a5.072,5.072,0,0,0-.9,2.555h-3.5q.105-4.047,2.666-5.621a11.158,11.158,0,0,1,5.981-1.594,12.329,12.329,0,0,1,6.394,1.472,4.968,4.968,0,0,1,2.437,4.578v12.61a1.65,1.65,0,0,0,.229.919,1.2,1.2,0,0,0,1.02.348c.168,0,.355-.007.563-.02s.432-.062.667-.1v2.719a10.707,10.707,0,0,1-1.332.306,9.955,9.955,0,0,1-1.252.061,3.1,3.1,0,0,1-2.81-1.348,5.148,5.148,0,0,1-.647-2.024,9.5,9.5,0,0,1-3.292,2.555,10.341,10.341,0,0,1-4.727,1.083,7.17,7.17,0,0,1-5.084-1.839,6.137,6.137,0,0,1-1.957-4.64,5.907,5.907,0,0,1,1.936-4.721,9.315,9.315,0,0,1,5.084-2.064Z" fill="#fff"/><path d="M358.514,58.322h3.562v3.107a9.936,9.936,0,0,1,3.355-2.759,9.083,9.083,0,0,1,3.935-.838q4.752,0,6.418,3.25a11.347,11.347,0,0,1,.915,5.088V80.211h-3.81V66.416a7.355,7.355,0,0,0-.605-3.229,3.673,3.673,0,0,0-3.625-2.044,7.516,7.516,0,0,0-2.187.265,5.644,5.644,0,0,0-2.708,1.8,5.465,5.465,0,0,0-1.228,2.248,15.1,15.1,0,0,0-.271,3.291V80.211h-3.751Z" fill="#fff"/><path d="M126.878,79.274a16.525,16.525,0,1,0-16.84-16.523A16.685,16.685,0,0,0,126.878,79.274Zm0,4.406a20.932,20.932,0,1,0-21.331-20.929A21.133,21.133,0,0,0,126.878,83.68Z" fill="#fff" fill-rule="evenodd"/><path d="M142.178,72.909l23.576,18.725-1.413,1.712L140.765,74.621Z" fill="#fff" fill-rule="evenodd"/><path d="M149.921,74.754l17.963,14.319-5.664,6.839L144.257,81.593Z" fill="#fff" fill-rule="evenodd"/><path d="M126.878,51.736a11.122,11.122,0,0,0-11.227,11.015h-2.245a13.346,13.346,0,0,1,13.472-13.218Z" fill="#fff" fill-rule="evenodd"/><path d="M96.565,35.217h16.279v4.406H101.056v9.913H96.565ZM152.7,39.623H140.912V35.217h16.279V49.536H152.7ZM101.056,83.682V73.769H96.565V88.088h16.279V83.682Z" fill="#3886fa" fill-rule="evenodd"/></g></svg>