<svg xmlns="http://www.w3.org/2000/svg" width="426.687" height="88.846" viewBox="0 0 426.687 88.846"><g transform="translate(-99.709 -9569.321)"><path d="M234.045,9595.914h29.6v7.2H242.712v9.421h18.325v7.114H242.712v17.174h-8.667Z" fill="#191753"/><path d="M277.154,9602.917h-8.186v-7.309h8.186Zm-8.186,3.613h8.186v30.29h-8.186Z" fill="#191753"/><path d="M302.107,9605.807a11.962,11.962,0,0,1,7.817,2.474q3.059,2.446,3.059,8.142v20.4h-8.27v-18.426a8.276,8.276,0,0,0-.652-3.668q-1.189-2.333-4.532-2.334a5.629,5.629,0,0,0-5.636,3.418,11.54,11.54,0,0,0-.793,4.613v16.4h-8.044v-30.235h7.789V9611a13.527,13.527,0,0,1,2.946-3.362A10.375,10.375,0,0,1,302.107,9605.807Z" fill="#191753"/><path d="M331.847,9605.807a10.017,10.017,0,0,1,4.985,1.224,9.6,9.6,0,0,1,3.54,3.334v-14.45h8.186v40.906h-7.846v-4.2a10.044,10.044,0,0,1-9.432,5.14,11.615,11.615,0,0,1-9.12-4.278,16.382,16.382,0,0,1-3.682-11.032q0-7.753,3.625-12.2A11.974,11.974,0,0,1,331.847,9605.807Zm1.756,25.288a6,6,0,0,0,5.211-2.5,10.892,10.892,0,0,0,1.785-6.475q0-5.558-2.861-7.948a6.231,6.231,0,0,0-4.078-1.445,5.725,5.725,0,0,0-5.212,2.642,14.024,14.024,0,0,0,.028,13.227A5.783,5.783,0,0,0,333.6,9631.095Z" fill="#191753"/><path d="M360.256,9623.647a11,11,0,0,0,1.671,5.642q2.8,4.056,9.885,4.057a17.831,17.831,0,0,0,5.778-.889q5.041-1.724,5.041-6.17,0-3.333-2.124-4.751a21.669,21.669,0,0,0-6.741-2.418l-5.636-1.251a25.834,25.834,0,0,1-7.818-2.7,8.495,8.495,0,0,1-3.965-7.642,11.663,11.663,0,0,1,3.88-9.032q3.881-3.527,10.99-3.529a19.223,19.223,0,0,1,11.1,3.113q4.588,3.083,4.588,9.893h-5.3a10.1,10.1,0,0,0-1.813-5.029q-2.577-3.2-8.752-3.2-4.984,0-7.166,2.056a6.384,6.384,0,0,0-2.181,4.78,4.652,4.652,0,0,0,2.549,4.391,37.888,37.888,0,0,0,7.563,2.224l5.834,1.306a18.076,18.076,0,0,1,6.515,2.584,9.609,9.609,0,0,1,3.965,8.31q0,6.781-5.041,9.7a22.776,22.776,0,0,1-11.67,2.917q-7.761,0-12.151-3.89-4.391-3.863-4.3-10.477Z" fill="#3886fa"/><path d="M406.282,9606.2a13.34,13.34,0,0,1,8.327,2.445q3.228,2.446,3.879,8.42h-4.955a8.812,8.812,0,0,0-2.068-4.558q-1.614-1.834-5.183-1.834a7.161,7.161,0,0,0-6.968,4.669,18.243,18.243,0,0,0-1.359,7.476,13.859,13.859,0,0,0,1.926,7.53,7.562,7.562,0,0,0,11.074,1.167,10.415,10.415,0,0,0,2.578-5.225h4.955q-.848,5.919-4.247,8.671a13.473,13.473,0,0,1-8.7,2.723,11.713,11.713,0,0,1-9.488-4.252,16.182,16.182,0,0,1-3.541-10.671q0-7.835,3.881-12.2A12.644,12.644,0,0,1,406.282,9606.2Z" fill="#3886fa"/><path d="M427.5,9628.9a4.092,4.092,0,0,0,1.616,3.418,6.056,6.056,0,0,0,3.821,1.25,11.779,11.779,0,0,0,5.212-1.224,6.868,6.868,0,0,0,4.25-6.641v-4.03a8.746,8.746,0,0,1-2.409.974,20.739,20.739,0,0,1-2.888.556l-3.089.389a11.948,11.948,0,0,0-4.161,1.14A4.421,4.421,0,0,0,427.5,9628.9Zm12.35-10.116a2.767,2.767,0,0,0,2.349-1.444,4.293,4.293,0,0,0,.34-1.918,4,4,0,0,0-1.87-3.7,9.924,9.924,0,0,0-5.294-1.167q-3.994,0-5.666,2.112a6.9,6.9,0,0,0-1.219,3.474h-4.758q.144-5.5,3.625-7.642a15.161,15.161,0,0,1,8.132-2.168,16.761,16.761,0,0,1,8.694,2,6.756,6.756,0,0,1,3.314,6.225v17.146a2.255,2.255,0,0,0,.311,1.25,1.63,1.63,0,0,0,1.387.472c.229,0,.482-.009.765-.027.286-.037.587-.083.908-.14v3.7a14.233,14.233,0,0,1-1.813.417,13.492,13.492,0,0,1-1.7.084,4.221,4.221,0,0,1-3.822-1.834,7.036,7.036,0,0,1-.879-2.751,12.928,12.928,0,0,1-4.475,3.473,14.059,14.059,0,0,1-6.428,1.474,9.751,9.751,0,0,1-6.913-2.5,8.345,8.345,0,0,1-2.66-6.309,8.037,8.037,0,0,1,2.631-6.42,12.67,12.67,0,0,1,6.914-2.806Z" fill="#3886fa"/><path d="M455.876,9607.057h4.843v4.225a13.518,13.518,0,0,1,4.562-3.751,12.339,12.339,0,0,1,5.351-1.14q6.461,0,8.726,4.418a15.432,15.432,0,0,1,1.244,6.919v19.093h-5.18v-18.759a10.015,10.015,0,0,0-.822-4.391,5,5,0,0,0-4.93-2.779,10.2,10.2,0,0,0-2.974.362,7.669,7.669,0,0,0-3.682,2.445,7.428,7.428,0,0,0-1.669,3.057,20.487,20.487,0,0,0-.369,4.475v15.59h-5.1Z" fill="#3886fa"/><path d="M140.926,9635.544a22.469,22.469,0,1,0-22.9-22.465A22.684,22.684,0,0,0,140.926,9635.544Zm0,5.991c16.018,0,29-12.74,29-28.456s-12.985-28.456-29-28.456-29,12.74-29,28.456S124.908,9641.535,140.926,9641.535Z" fill="#191753" fill-rule="evenodd"/><path d="M161.728,9626.89l32.056,25.461-1.921,2.328-32.056-25.461Z" fill="#191753" fill-rule="evenodd"/><path d="M172.256,9629.4l24.424,19.469-7.7,9.3-24.424-19.47Z" fill="#191753" fill-rule="evenodd"/><path d="M140.925,9598.1a15.123,15.123,0,0,0-15.265,14.977h-3.053a18.148,18.148,0,0,1,18.318-17.972Z" fill="#fff" fill-rule="evenodd"/><path d="M99.709,9575.641h22.135v5.991H105.815v13.479H99.709Zm76.325,5.991H160.006v-5.991H182.14v19.471h-6.106Zm-70.219,59.907V9628.06H99.709v19.471h22.135v-5.991Z" fill="#3886fa" fill-rule="evenodd"/><text transform="translate(492.396 9634.321)" fill="#191753" font-size="62.287" font-family="Poppins-Medium, Poppins" font-weight="500"><tspan x="0" y="0">?</tspan></text></g></svg>