<svg xmlns="http://www.w3.org/2000/svg" width="98.048" height="98.048" viewBox="0 0 98.048 98.048"><defs><style>.a{fill:#3886fa;}.b{fill:#fff;}</style></defs><g transform="translate(-1001.836 -6092.253)"><circle class="a" cx="49.024" cy="49.024" r="49.024" transform="translate(1001.836 6092.253)"/><path class="b" d="M1045.109,6156.406c-.591.459-1.129.837-1.621,1.268a7.285,7.285,0,0,1-3.4,1.547,44.091,44.091,0,0,1-9.425.483c-1.834-.007-3.669-.092-5.5-.15a2.754,2.754,0,0,1-1.87-.6,1.816,1.816,0,0,1-.642-1.389c-.1-3.754-.024-7.509-.06-11.263-.017-1.86.03-3.721-.029-5.579a2.433,2.433,0,0,1,.982-2.1c.987-.819,1.944-1.674,2.909-2.517q2.141-1.868,4.275-3.744c1.327-1.162,2.678-2.3,3.973-3.5a3.719,3.719,0,0,1,2.162-1,8.2,8.2,0,0,1,3.734.2c.283.1.358-.027.362-.283a7.97,7.97,0,0,1,.116-1.862,3.238,3.238,0,0,1,3.078-2.458q7.116-.021,14.231-.011c5.768,0,11.536.02,17.3-.017a3.431,3.431,0,0,1,3.308,2.279,2.839,2.839,0,0,1,.167.969c-.065,6.744-.019,13.489-.017,20.233a3.842,3.842,0,0,1-.63,2.471,3.319,3.319,0,0,1-2.8,1.372q-4.008-.014-8.017-.007c-2.342,0-4.684.006-7.027,0-.258,0-.306.037-.18.289a3.787,3.787,0,0,1-.121,3.621c-.8,1.545-1.6,3.088-2.354,4.654a3.826,3.826,0,0,1-6.23.9c-.182-.206-.286-.258-.522-.051a3.8,3.8,0,0,1-6.1-1.987A4.846,4.846,0,0,1,1045.109,6156.406Zm-18.887-7.9h-.011v6.921c0,.522,0,.527.536.527,3.342,0,6.685.006,10.028-.007a9.771,9.771,0,0,0,2.138-.212,5.048,5.048,0,0,0,1.979-.708c.765-.567,1.505-1.168,2.269-1.736a57.75,57.75,0,0,0,5.114-4.383,23.322,23.322,0,0,0,3.655-4.236,7.414,7.414,0,0,0,1.056-2.336c.128-.546.034-.646-.505-.577-.14.018-.281.027-.42.053a25.024,25.024,0,0,0-5.308,1.777c-1.437.618-2.83,1.329-4.232,2.023a1.828,1.828,0,0,1-2.625-1.715c0-3.9-.006-7.792.008-11.688a.608.608,0,0,0-.519-.7,4.719,4.719,0,0,0-1.855-.041.866.866,0,0,0-.472.218l-.743.652q-2.079,1.829-4.159,3.657c-1.866,1.636-3.729,3.275-5.6,4.9a.9.9,0,0,0-.335.76C1026.226,6143.935,1026.222,6146.218,1026.222,6148.5Zm34.027-12.231v0h-16.207c-.5,0-.514.01-.514.513q0,1.888,0,3.778c0,.42,0,.421.372.263.151-.065.3-.134.45-.2a33.412,33.412,0,0,1,6.158-2.233,8.736,8.736,0,0,1,2.653-.3,3.476,3.476,0,0,1,3.433,3.105,6.031,6.031,0,0,1-.576,3.569,16.072,16.072,0,0,1-2.119,3.407c-.055.07-.171.129-.119.233s.17.044.259.054c.058.006.118,0,.177,0H1075.4a3.12,3.12,0,0,0,.562-.034,1.057,1.057,0,0,0,.9-1.025c.01-.164.021-.329.021-.493q0-5.049,0-10.1c0-.514-.026-.539-.537-.539Zm-.17-6.6v0q8.192,0,16.383,0c.267,0,.464-.014.429-.368a18.15,18.15,0,0,1-.014-2.15c.018-.818-.228-1.474-1.445-1.467-2.8.016-5.6,0-8.4.007-3.495.011-6.99-.007-10.485.029-4,.04-8,.026-12,0a1.126,1.126,0,0,0-1.257,1.241c.046.727.009,1.459.011,2.188,0,.509,0,.51.506.51Zm-5.532,29.266a1.28,1.28,0,0,0,1.249-.764q1.239-2.392,2.439-4.806a1.341,1.341,0,0,0-.364-1.71,1.314,1.314,0,0,0-2.041.524c-.49.936-.964,1.88-1.442,2.822-.335.66-.682,1.314-.994,1.985A1.292,1.292,0,0,0,1054.547,6158.938Zm-1.856-6.618a1.33,1.33,0,0,0-.725-1.2,1.157,1.157,0,0,0-1.37.2,3.264,3.264,0,0,0-.795,1.065q-.683,1.313-1.345,2.636c-.3.609-.624,1.212-.876,1.843a1.221,1.221,0,0,0,.453,1.408,1.308,1.308,0,0,0,1.451.131,1.792,1.792,0,0,0,.746-.906q1.1-2.15,2.178-4.306A1.752,1.752,0,0,0,1052.691,6152.32Z"/><path class="b" d="M1070.1,6146.533c-1.341,0-2.682-.006-4.023,0-.246,0-.339-.078-.339-.32q0-1.252-.023-2.5c0-.163.064-.243.222-.251.094,0,.188,0,.282,0l7.727,0c.5,0,.511.007.513.513,0,.741,0,1.482.011,2.223,0,.255-.078.347-.348.344-1.341-.013-2.681-.006-4.022-.006Z"/></g></svg>