<svg xmlns="http://www.w3.org/2000/svg" viewBox="0 0 55.57 55.57">
  <circle cx="27.78" cy="27.78" r="27.78" fill="rgba(255, 255, 255, 0.5)"/>
  <path fill="#fff" d="M19.08,27.77c0-3.35,.03-6.69-.01-10.04-.02-1.56,1.1-3.3,3.21-3.38,.69-.03,1.32,.2,1.91,.57,3.62,2.26,7.24,4.51,10.87,6.76,1.72,1.07,3.44,2.12,5.15,3.2,.97,.61,1.67,1.44,1.77,2.64,.12,1.36-.43,2.4-1.56,3.14-.72,.46-1.45,.9-2.18,1.35-4.68,2.89-9.35,5.79-14.03,8.68-1.67,1.03-3.7,.55-4.69-1.1-.3-.5-.43-1.05-.43-1.64,0-3.39,0-6.78,0-10.17Z"/>
</svg>